<svg width="175" height="20" viewBox="0 0 175 20" fill="none" xmlns="http://www.w3.org/2000/svg">
<path d="M54.8977 20.0005L43.2273 6.90047V20.0005H40.0742V0.0703125H41.8477L53.032 12.5608V0.0703125H56.1852V20.0005H54.8977Z" fill="#ED1515"/>
<path d="M34.8445 0.0703125H31.6914V20.0005H34.8445V0.0703125Z" fill="#ED1515"/>
<path d="M61.0078 0.0703125H66.5859C69.0469 0.0703125 71.0813 0.562376 72.6906 1.54809C74.2985 2.53381 75.4703 3.80206 76.2078 5.35286C76.9438 6.90524 77.3125 8.55604 77.3125 10.3084C77.3125 12.2433 76.8672 13.9449 75.9781 15.4148C75.0891 16.8846 73.8985 18.0164 72.4078 18.81C70.9172 19.6037 69.2906 20.0005 67.5297 20.0005H61.0078V0.0703125ZM66.9641 16.9338C68.3656 16.9338 69.6 16.6703 70.6703 16.1402C71.7391 15.6116 72.575 14.8306 73.1766 13.8005C73.7781 12.7687 74.0797 11.5322 74.0797 10.091C74.0797 8.52112 73.7516 7.21159 73.0953 6.16238C72.4391 5.11318 71.6031 4.34175 70.5891 3.84968C69.5734 3.35762 68.5266 3.11 67.45 3.11H64.1625V16.9354H66.9656L66.9641 16.9338Z" fill="#ED1515"/>
<path d="M89.7469 9.70794C89.0375 9.28889 88.1359 8.87462 87.0672 8.4762C86.1 8.1016 85.3016 7.75398 84.6922 7.44446C84.1016 7.14446 83.6094 6.76191 83.2313 6.30953C82.8625 5.86985 82.6844 5.34604 82.6844 4.70794C82.6844 3.79524 83.0234 3.06826 83.7219 2.48572C84.4234 1.9 85.3797 1.60318 86.5641 1.60318C87.2859 1.60318 88.0375 1.70953 88.7953 1.92064C89.5594 2.13175 90.2625 2.39206 90.8891 2.69206L91.0813 2.78413L91.7781 1.36667L91.5844 1.26825C90.8641 0.903174 90.0297 0.596828 89.1063 0.358732C88.1781 0.120637 87.2703 0 86.4016 0C85.3828 0.0190476 84.4438 0.230159 83.6109 0.63016C82.7703 1.03333 82.1063 1.60476 81.6328 2.33016C81.1594 3.05714 80.9172 3.90318 80.9172 4.84445C80.9172 5.78572 81.1703 6.62857 81.6672 7.27778C82.1547 7.9127 82.7641 8.42858 83.4813 8.81112C84.1813 9.18414 85.0766 9.5762 86.1422 9.97144C87.0859 10.327 87.8781 10.6826 88.4953 11.0254C89.0938 11.3587 89.5984 11.8064 89.9953 12.354C90.3828 12.8905 90.5781 13.5651 90.5781 14.3587C90.5781 15.208 90.3641 15.9429 89.9406 16.5413C89.5141 17.1461 88.9531 17.6032 88.275 17.9C86.8031 18.5461 85.1156 18.4905 83.3703 17.8016C82.4359 17.4334 81.6391 16.9968 81.0016 16.5064L80.8047 16.3556L79.9688 17.8333L80.1391 17.9476C82.1344 19.281 84.1813 19.9572 86.2188 19.9572C87.4 19.9572 88.4672 19.7222 89.3891 19.2588C90.3188 18.7921 91.05 18.1222 91.5672 17.2714C92.0828 16.4191 92.3453 15.4302 92.3453 14.3302C92.3453 13.173 92.0906 12.208 91.5891 11.4619C91.0953 10.727 90.4766 10.1365 89.75 9.70636" fill="#ED1515"/>
<path d="M134.755 0.0703125H133.016V20.0005H134.755V0.0703125Z" fill="#ED1515"/>
<path d="M174.999 0.0703125H162.191V1.78301H167.699L167.726 20.0005H169.465L169.438 1.78301H174.999V0.0703125Z" fill="#ED1515"/>
<path d="M108.568 1.4973C107.49 0.549677 106.023 0.0703125 104.204 0.0703125H97.1055V20.0005H98.693V11.4957H104.071C105.438 11.4957 106.595 11.2211 107.509 10.6783C108.424 10.1354 109.11 9.41 109.546 8.5227C109.979 7.64175 110.199 6.67349 110.199 5.64651C110.199 3.84492 109.649 2.44809 108.566 1.49571M108.21 7.60207C107.929 8.24969 107.441 8.80524 106.759 9.25604C106.076 9.70683 105.171 9.93541 104.068 9.93541L98.7383 9.93064V9.93541H98.6898V1.62746H98.7383V1.63222L104.334 1.62746C105.69 1.62746 106.759 2.00047 107.509 2.7354C108.257 3.46873 108.637 4.4481 108.637 5.64651C108.637 6.28937 108.493 6.9481 108.21 7.60207Z" fill="#ED1515"/>
<path d="M21.4156 0.0703125L14.0672 17.6068L10.1719 8.31159L8.35156 12.6544L11.4297 20.0005H16.7031L23.236 4.41317V20.0005H26.4625V0.0703125H21.4156Z" fill="#ED1515"/>
<path d="M11.9922 0.0703125H8.35157L0 20.0005H3.64063L10.1719 4.41317L14.0672 13.7084L15.8875 9.36556L11.9922 0.0703125Z" fill="#ED1515"/>
<path d="M126.113 20.0001H127.819L127.805 19.9763L122.495 11.3985C123.305 11.2763 124.019 11.0366 124.623 10.6779C125.539 10.1335 126.225 9.40964 126.661 8.52234C127.095 7.64138 127.314 6.67313 127.314 5.64614C127.314 3.84456 126.764 2.44773 125.681 1.49535C124.603 0.547728 123.136 0.0683594 121.317 0.0683594H114.219V19.9985H115.806V11.4938H120.795L126.098 19.9747L126.113 19.9985V20.0001ZM115.855 9.93186V9.93662H115.806V1.62868H115.855V1.63344L121.45 1.62868C122.806 1.62868 123.875 2.00169 124.625 2.73662C125.373 3.47154 125.753 4.44932 125.753 5.64773C125.753 6.29059 125.609 6.94932 125.327 7.60329C125.045 8.25091 124.558 8.80647 123.875 9.25726C123.192 9.70805 122.288 9.93662 121.184 9.93662L115.855 9.93186Z" fill="#ED1515"/>
<path d="M156.455 0.0546875V16.8484L152.148 11.5849L149.39 8.21343L142.991 0.353101V0.351512L142.813 0.134053L142.76 0.0705615H141.266L141.238 20.0007H142.991V3.20866L148.673 10.1468L156.823 19.9865H158.18L158.209 0.0546875H156.455Z" fill="#ED1515"/>
</svg>
